PathFileType  4	(X/Y/Z) C:\Users\antoi\Documents\MyRepositories\mobilecap\ResultsAnalysis
DataRate	CameraRate	NumFrames	NumMarkers	Units	OrigDataRate	OrigDataStartFrame	OrigNumFrames
100.0	100.0	4	51	mm	100.0	20	158
Frame#	Time	r_knee			r_shank_antsup			r_ankle			r_calc			r_5meta			r_toe			L_knee			L_shank_antsup			L_ankle			L_calc			L_5meta			L_toe			r_sh2			r_sh3			r_sh4			L_sh2			L_sh3			r_thigh1			r_thigh2			r_thigh3			r_thigh4			r_thigh5			L_thigh1			L_thigh2			L_thigh3			L_thigh4			r.ASIS			r.PSIS			L.ASIS			L.PSIS			C7			R_Shoulder			L_Shoulder			R_Sternum			L_Sternum			R_humerus			R_elbow_med			R_elbow_lat			R_forearm			R_wrist_radius			R_wrist_ulna			L_humerus			L_elbow_med			L_elbow_lat			L_forearm			L_wrist_radius			L_wrist_ulna			R_HJC			L_HJC			R_HJC_reg			L_HJC_reg			
		X1	Y1	Z1	X2	Y2	Z2	X3	Y3	Z3	X4	Y4	Z4	X5	Y5	Z5	X6	Y6	Z6	X7	Y7	Z7	X8	Y8	Z8	X9	Y9	Z9	X10	Y10	Z10	X11	Y11	Z11	X12	Y12	Z12	X13	Y13	Z13	X14	Y14	Z14	X15	Y15	Z15	X16	Y16	Z16	X17	Y17	Z17	X18	Y18	Z18	X19	Y19	Z19	X20	Y20	Z20	X21	Y21	Z21	X22	Y22	Z22	X23	Y23	Z23	X24	Y24	Z24	X25	Y25	Z25	X26	Y26	Z26	X27	Y27	Z27	X28	Y28	Z28	X29	Y29	Z29	X30	Y30	Z30	X31	Y31	Z31	X32	Y32	Z32	X33	Y33	Z33	X34	Y34	Z34	X35	Y35	Z35	X36	Y36	Z36	X37	Y37	Z37	X38	Y38	Z38	X39	Y39	Z39	X40	Y40	Z40	X41	Y41	Z41	X42	Y42	Z42	X43	Y43	Z43	X44	Y44	Z44	X45	Y45	Z45	X46	Y46	Z46	X47	Y47	Z47	X48	Y48	Z48	X49	Y49	Z49	X50	Y50	Z50	X51	Y51	Z51	

20	0.19000000	204.52573	603.99898	-68.82548	232.06609	453.51635	-84.86529	163.52132	93.07210	-117.68526	109.45061	75.78504	-183.42351	303.02990	37.33053	-97.44602	342.15482	69.64454	-145.94042	193.88479	608.56488	-380.52510	108.40063	431.66343	-350.90515	-168.57500	294.81699	-316.26099	-215.50226	324.16186	-241.68062	-165.08447	133.37670	-353.06538	-106.69007	116.10286	-305.80746	227.89479	341.84306	-99.68382	167.72490	448.38164	-43.80215	159.76529	335.28043	-51.06415	59.30544	489.63564	-395.28303	-31.03799	419.16624	-368.72781	193.13352	895.54964	-21.52549	225.47138	789.21361	-29.37967	171.90549	747.49623	-23.27591	82.45645	864.12396	-41.55708	117.84649	751.08578	-43.15364	199.21584	907.96646	-385.05927	230.18826	777.17214	-390.97749	90.25748	887.14332	-380.33601	123.06712	754.17523	-390.61311	192.69858	1173.65451	-69.04868	-7.23292	1195.70182	-134.86830	151.35947	1171.13527	-342.63160	-19.65713	1195.91998	-227.19789	31.15517	1687.15332	-156.09703	110.88599	1625.17143	7.62424	81.75168	1674.88239	-340.06626	175.89633	1600.28693	-146.35131	175.69680	1607.53060	-203.24388	78.37293	1350.92594	56.77007	-24.58665	1251.71343	17.75158	-7.98496	1266.06321	88.65861	82.90408	1068.56616	94.80731	118.88479	979.32897	84.19376	86.43992	974.37053	108.55885	69.42614	1383.78565	-418.02124	-19.43936	1310.39700	-366.69786	-1.30786	1307.88284	-441.90451	87.32557	1122.80083	-477.51675	119.49694	1048.17520	-471.29288	94.96484	1050.19758	-496.51566	113.84486	1074.68800	-98.50087	80.79336	1076.32746	-293.18505	120.18543	1085.19140	-99.57143	95.83193	1085.61916	-280.55959	
21	0.20000000	207.41768	604.14692	-68.70525	233.77637	453.47371	-84.60153	163.52700	93.27954	-117.72031	109.51544	76.02525	-183.44176	302.92111	37.24429	-97.41731	342.20852	69.38550	-145.94245	214.05678	613.56147	-380.50690	132.73845	434.14907	-351.38737	-140.74077	290.66978	-317.24054	-188.74263	317.96187	-242.53278	-131.74050	129.80432	-355.12330	-72.61463	114.28693	-307.93779	229.02716	341.86127	-99.44944	169.27992	448.75535	-43.89899	160.58649	335.68659	-51.23382	82.60431	491.15581	-395.83027	-6.15678	418.47769	-369.42567	200.66234	896.32091	-20.88480	231.32140	789.21048	-29.50098	176.98687	748.23234	-23.10838	89.13826	865.93901	-41.23001	122.91549	752.55050	-43.00901	213.55951	912.94301	-384.92431	247.29628	782.77178	-390.71941	105.12109	890.01104	-381.40023	140.72968	757.55812	-391.44568	202.74948	1175.05122	-68.54429	2.78033	1197.44147	-134.07859	160.91661	1173.56612	-341.93420	-9.84532	1197.71689	-226.44188	40.97921	1688.80643	-154.50952	121.58998	1626.74342	8.62320	90.65785	1677.12210	-338.71128	185.87448	1602.12451	-145.65183	185.49840	1609.50370	-202.50985	91.06041	1352.32477	58.14797	-11.67233	1252.44605	19.90938	5.29498	1266.96260	90.78196	97.83310	1070.22643	96.56470	134.34839	981.30444	85.55646	102.27073	976.07393	110.35617	77.26301	1386.36749	-417.35420	-11.33128	1312.92523	-365.61962	6.23892	1310.56174	-440.99387	96.02301	1126.08708	-477.34293	128.89485	1051.85953	-471.58525	104.02810	1053.58595	-496.47287	123.85389	1076.21403	-98.23292	90.54899	1078.50958	-292.86745	130.09407	1087.18217	-98.94120	105.37262	1087.72229	-279.79599	
22	0.21000000	210.15677	604.29683	-68.51977	235.40707	453.43051	-84.30816	163.52340	93.47061	-117.69300	109.52053	76.24161	-183.39550	302.86807	37.14469	-97.36528	342.26663	69.15767	-145.88809	233.63414	618.44754	-380.38894	156.97299	436.39646	-351.68715	-112.43708	285.57627	-318.21251	-161.53857	310.55583	-243.38070	-97.38125	125.59385	-357.22074	-37.66051	112.03244	-310.06018	230.10218	341.87121	-99.17038	170.80106	449.08674	-43.88071	161.43565	336.06457	-51.27185	105.68604	492.12120	-396.41228	18.77427	417.03921	-370.12519	207.30227	896.76582	-19.98269	236.95832	789.11635	-29.53643	181.81610	748.94697	-22.94075	95.60743	867.70220	-41.03334	127.83459	753.91316	-42.95666	227.69065	917.68264	-384.75565	264.01625	788.16813	-390.33271	119.85109	892.76826	-382.69920	158.03269	760.82070	-392.25816	212.68630	1176.23179	-68.06837	12.68904	1199.05444	-133.36739	170.44718	1175.74222	-341.26878	-0.12251	1199.36308	-225.74667	50.74048	1690.29390	-153.00482	132.11835	1628.20028	9.59834	99.60301	1679.14409	-337.39462	195.78561	1603.81433	-144.94549	195.22656	1611.30911	-201.75469	103.61769	1353.62488	59.49734	1.23970	1253.02713	21.94953	18.48100	1267.72712	92.79849	112.72794	1071.79774	98.31109	149.57546	983.11836	87.03876	118.01530	977.70293	112.16293	85.14841	1388.74264	-416.70463	-3.26592	1315.24631	-364.64335	13.78365	1313.05854	-440.18311	104.71988	1129.17470	-477.21964	138.30976	1055.38308	-471.94634	113.06088	1056.77153	-496.48037	133.70290	1077.55855	-97.98382	100.19603	1080.48405	-292.57519	139.86134	1089.00448	-98.31944	114.79840	1089.60939	-279.04070	
23	0.22000000	212.79541	604.44770	-68.23086	236.99153	453.38095	-83.94052	163.53473	93.63118	-117.58419	109.47193	76.44506	-183.27232	302.86613	37.01972	-97.27939	342.32012	68.96279	-145.76327	252.60775	623.19285	-380.18292	181.07581	438.48736	-351.88871	-83.64658	279.61170	-319.18880	-133.85367	301.99325	-244.25048	-61.95697	120.85429	-359.34227	-1.78900	109.48442	-312.17374	231.13874	341.86541	-98.80873	172.31591	449.38117	-43.71301	162.32500	336.41801	-51.14465	128.49139	492.66514	-396.97992	43.74956	414.97685	-370.80655	213.03468	896.88077	-18.94121	242.41749	788.95343	-29.39757	186.46722	749.63809	-22.72041	101.91910	869.40634	-40.92311	132.66981	755.19983	-42.90609	241.56308	922.15800	-384.54278	280.30254	793.31831	-389.82652	134.37072	895.37975	-384.02820	174.92554	763.97046	-393.03441	222.51702	1177.18537	-67.63494	22.49490	1200.51248	-132.74923	179.93660	1177.65111	-340.64571	9.52094	1200.86178	-225.12514	60.45094	1691.61007	-151.58562	142.50135	1629.50746	10.54067	108.60763	1680.92544	-336.13694	205.63640	1605.33452	-144.24114	204.90412	1612.92536	-200.99693	116.02428	1354.79953	60.82216	14.11889	1253.44145	23.88077	31.54564	1268.34563	94.70938	127.56687	1073.27070	100.03965	164.65388	984.79407	88.62179	133.66901	979.25199	113.96746	93.09543	1390.88017	-416.09285	4.79853	1317.31781	-363.75920	21.34067	1315.34625	-439.47490	113.43096	1132.02087	-477.15713	147.74400	1058.68990	-472.38023	122.08171	1059.71075	-496.54760	143.39570	1078.70683	-97.76989	109.73206	1082.24089	-292.32388	149.49623	1090.59621	-97.75508	124.13301	1091.28008	-278.34399	
